<svg width="36" height="26" viewBox="0 0 36 26" fill="none" xmlns="http://www.w3.org/2000/svg">
<path d="M27.44 9.25L27.1025 9.13L24.265 3.81C23.7321 2.81023 22.9374 1.97412 21.966 1.3911C20.9946 0.808073 19.8829 0.50006 18.75 0.5H11.605C10.2929 0.499946 9.01413 0.912816 7.9498 1.6801C6.88547 2.44738 6.08961 3.53017 5.675 4.775L4.3225 8.8325C3.18938 9.3101 2.22233 10.1113 1.54239 11.1359C0.862462 12.1605 0.499866 13.3628 0.5 14.5925V17.375C0.5 19.15 1.5575 20.675 3.075 21.3625C3.27152 22.4884 3.84786 23.5131 4.70803 24.2657C5.5682 25.0184 6.66027 25.4536 7.80234 25.4989C8.9444 25.5442 10.0675 25.1969 10.9846 24.5147C11.9017 23.8326 12.5574 22.8568 12.8425 21.75H23.1575C23.4426 22.8568 24.0983 23.8326 25.0154 24.5147C25.9325 25.1969 27.0556 25.5442 28.1977 25.4989C29.3397 25.4536 30.4318 25.0184 31.292 24.2657C32.1521 23.5131 32.7285 22.4884 32.925 21.3625C33.6924 21.0161 34.3435 20.4556 34.8003 19.7483C35.257 19.041 35.5 18.217 35.5 17.375V16.5275C35.4998 15.2373 35.1003 13.9788 34.3564 12.9247C33.6125 11.8705 32.5606 11.0725 31.345 10.64L27.57 9.2975V9.25H27.44ZM11.605 3H14.25V9.25H6.8175L8.045 5.565C8.29388 4.81778 8.7717 4.16788 9.41069 3.70747C10.0497 3.24707 10.8174 2.99955 11.605 3ZM16.75 3H18.75C19.4298 2.99976 20.0969 3.18433 20.68 3.53397C21.263 3.88362 21.74 4.38517 22.06 4.985L24.335 9.25H16.75V3ZM27.0075 11.75L30.5075 12.995C31.2367 13.2546 31.8678 13.7334 32.3141 14.3659C32.7603 14.9984 32.9999 15.7534 33 16.5275V17.375C33 17.8125 32.85 18.215 32.6 18.535C32.1905 17.5738 31.4902 16.7651 30.5974 16.2223C29.7047 15.6796 28.6643 15.4302 27.6226 15.509C26.5808 15.5879 25.5898 15.9912 24.789 16.6622C23.9881 17.3331 23.4176 18.2381 23.1575 19.25H12.8425C12.5824 18.2381 12.0119 17.3331 11.211 16.6622C10.4102 15.9912 9.41925 15.5879 8.37745 15.509C7.33565 15.4302 6.29532 15.6796 5.40257 16.2223C4.50982 16.7651 3.80951 17.5738 3.4 18.535C3.13982 18.2044 2.99887 17.7957 3 17.375V14.5925C3 13.4675 3.5 12.4425 4.3 11.75H27.0075ZM5.5 20.5C5.5 19.837 5.76339 19.2011 6.23223 18.7322C6.70107 18.2634 7.33696 18 8 18C8.66304 18 9.29893 18.2634 9.76777 18.7322C10.2366 19.2011 10.5 19.837 10.5 20.5C10.5 21.163 10.2366 21.7989 9.76777 22.2678C9.29893 22.7366 8.66304 23 8 23C7.33696 23 6.70107 22.7366 6.23223 22.2678C5.76339 21.7989 5.5 21.163 5.5 20.5ZM28 18C28.663 18 29.2989 18.2634 29.7678 18.7322C30.2366 19.2011 30.5 19.837 30.5 20.5C30.5 21.163 30.2366 21.7989 29.7678 22.2678C29.2989 22.7366 28.663 23 28 23C27.337 23 26.7011 22.7366 26.2322 22.2678C25.7634 21.7989 25.5 21.163 25.5 20.5C25.5 19.837 25.7634 19.2011 26.2322 18.7322C26.7011 18.2634 27.337 18 28 18Z" fill="black"/>
</svg>
