<svg width="38" height="35" viewBox="0 0 38 35" fill="none" xmlns="http://www.w3.org/2000/svg">
<path d="M20.7675 0.750033C20.2986 0.281355 19.6629 0.0180664 19 0.0180664C18.3371 0.0180664 17.7013 0.281355 17.2325 0.750033L0.614963 17.365C0.380578 17.5997 0.249033 17.918 0.249268 18.2497C0.249502 18.5814 0.381496 18.8994 0.616213 19.1338C0.85093 19.3682 1.16914 19.4997 1.50085 19.4995C1.83255 19.4992 2.15058 19.3672 2.38496 19.1325L3.99996 17.5175V30.75C3.99996 31.7446 4.39505 32.6984 5.09831 33.4017C5.80157 34.1049 6.7554 34.5 7.74996 34.5H30.25C31.2445 34.5 32.1984 34.1049 32.9016 33.4017C33.6049 32.6984 34 31.7446 34 30.75V17.5175L35.615 19.1325C35.8493 19.3672 36.1674 19.4992 36.4991 19.4995C36.8308 19.4997 37.149 19.3682 37.3837 19.1338C37.6184 18.8994 37.7504 18.5814 37.7507 18.2497C37.7509 17.918 37.6193 17.5997 37.385 17.365L31.5 11.4825V3.25003C31.5 2.91851 31.3683 2.60057 31.1338 2.36615C30.8994 2.13173 30.5815 2.00003 30.25 2.00003H27.75C27.4184 2.00003 27.1005 2.13173 26.8661 2.36615C26.6317 2.60057 26.5 2.91851 26.5 3.25003V6.48253L20.7675 0.750033ZM31.5 15.0175V30.75C31.5 31.0816 31.3683 31.3995 31.1338 31.6339C30.8994 31.8683 30.5815 32 30.25 32H7.74996C7.41844 32 7.1005 31.8683 6.86608 31.6339C6.63166 31.3995 6.49996 31.0816 6.49996 30.75V15.0175L19 2.51753L31.5 15.0175Z" fill="black"/>
<path d="M19 15.455C23.16 11.2725 33.5625 18.59 19 28C4.4375 18.59 14.84 11.2725 19 15.455Z" fill="black"/>
</svg>
