<svg width="18" height="16" viewBox="0 0 18 16" fill="none" xmlns="http://www.w3.org/2000/svg">
<path fill-rule="evenodd" clip-rule="evenodd" d="M8.293 15.707C8.48053 15.8945 8.73484 15.9998 9 15.9998C9.26516 15.9998 9.51947 15.8945 9.707 15.707L16.507 8.907C17.394 8.02 18 6.666 18 5.2C18 2.348 15.652 0 12.8 0C11.324 0 10.005 0.615 9.03 1.612L9 1.581L8.97 1.612C7.996 0.615 6.676 0 5.2 0C2.348 0 0 2.348 0 5.2C0 6.666 0.606 8.02 1.493 8.907L8.293 15.707ZM9 4.3C8.82374 4.29994 8.65062 4.2533 8.49819 4.16479C8.34576 4.07628 8.21943 3.94905 8.132 3.796C7.49 2.672 6.402 2 5.2 2C3.452 2 2 3.452 2 5.2C2 6.134 2.394 6.98 2.907 7.493L9 13.586L15.093 7.493C15.606 6.98 16 6.134 16 5.2C16 3.452 14.548 2 12.8 2C11.598 2 10.51 2.672 9.868 3.796C9.78057 3.94905 9.65424 4.07628 9.50181 4.16479C9.34938 4.2533 9.17626 4.29994 9 4.3Z" fill="#00AAFF"/>
</svg>
