<svg width="40" height="28" viewBox="0 0 40 28" fill="none" xmlns="http://www.w3.org/2000/svg">
<path d="M0 0.5V3H23.75V21.75H16.055C15.4975 19.6013 13.565 18 11.25 18C8.935 18 7.0025 19.6013 6.445 21.75H5V15.5H2.5V24.25H6.445C7.0025 26.3987 8.935 28 11.25 28C13.565 28 15.4975 26.3987 16.055 24.25H26.445C27.0025 26.3987 28.935 28 31.25 28C33.565 28 35.4975 26.3987 36.055 24.25H40V14.055L39.9213 13.8588L37.4213 6.35875L37.15 5.5H26.25V0.5H0ZM1.25 5.5V8H12.5V5.5H1.25ZM26.25 8H35.3513L37.5 14.4062V21.75H36.055C35.4975 19.6013 33.565 18 31.25 18C28.935 18 27.0025 19.6013 26.445 21.75H26.25V8ZM2.5 10.5V13H10V10.5H2.5ZM11.25 20.5C12.6462 20.5 13.75 21.6038 13.75 23C13.75 24.3962 12.6462 25.5 11.25 25.5C9.85375 25.5 8.75 24.3962 8.75 23C8.75 21.6038 9.85375 20.5 11.25 20.5ZM31.25 20.5C32.6462 20.5 33.75 21.6038 33.75 23C33.75 24.3962 32.6462 25.5 31.25 25.5C29.8538 25.5 28.75 24.3962 28.75 23C28.75 21.6038 29.8538 20.5 31.25 20.5Z" fill="black"/>
</svg>
